<?xml version="1.0"?>
<svg xmlns="http://www.w3.org/2000/svg" viewBox="0 0 158.00001 158.00001" height="300" width="300">
  <path
     style="stroke-width:0.35278"
     fill="#ffc400"
     d="M 78.855576,83.358224 50.324789,133.27221 78.855243,154 107.3857,133.27221 Z" />
  <path
     style="stroke-width:0.35278"
     fill="#ff2317"
     d="M 121.80392,122.79563 157.71189,96.707412 127.59196,4.0021028 H 108.07197 L 99.621236,33.585785 82.445918,93.711806 Z" />
  <path
     style="stroke-width:0.35278"
     fill="#004f93"
     d="m 93.188996,33.586488 -2.0998,-24.6505001 1.69287,-4.933184 H 67.162805 L 60.890739,18.794646 h 9.122623 L 63.923201,33.586488 Z M 35.907973,122.79388 0,96.705304 30.119937,4 h 19.519989 l 8.451078,29.583684 17.175615,60.124631 z" />
  <path
     d="M 34.776932,85.404024 78.855243,117.4338 122.93531,85.406828 106.09833,33.585785 51.613549,33.583684 Z"
     style="fill:#ffffff;stroke:none;stroke-width:1px;stroke-linecap:butt;stroke-linejoin:miter;stroke-opacity:1" />
  <path
     style="stroke-width:0.35278"
     d="M 100.05865,90.226101 V 74.815289 h 6.36881 v -6.592065 h -6.36881 v -8.177695 h 6.68845 V 53.454515 H 92.501666 V 90.2247 Z M 77.730512,59.93933 h 1.94909 c 0.987337,0 1.638903,0.450032 1.839034,1.306286 l -0.01227,6.844071 -0.01261,0.03014 c -0.32421,0.778797 -0.952642,1.173452 -1.86813,1.173452 h -1.89511 z m 11.078372,30.286771 0.01051,-5.722142 -2.791673,-10.346545 0.197678,-0.137042 c 1.134895,-0.789308 1.971871,-1.703394 2.422255,-2.644817 l 0.01752,-13.706716 c -1.353242,-2.766791 -4.75828,-4.214324 -7.434291,-4.214324 H 70.175294 V 90.2247 h 7.55522 V 75.723416 h 1.423 L 82.257476,90.2247 Z m -36.626485,0 V 53.455917 h 14.246828 v 6.591014 h -6.689854 v 8.177694 h 6.368452 v 6.592066 h -6.368452 v 15.410813 z" />
</svg>